HIERARCHY
ROOT joint_Root
{
	OFFSET 0.0 0.0 0.0
	CHANNELS 6 Xposition Yposition Zposition Zrotation Xrotation Yrotation 
	JOINT Hips
	{
		OFFSET -17.1583 93.1646 452.98
		CHANNELS 6 Xposition Yposition Zposition Zrotation Xrotation Yrotation 
		JOINT Spine
		{
			OFFSET 15.7357 0.0 0.0
			CHANNELS 6 Xposition Yposition Zposition Zrotation Xrotation Yrotation 
			JOINT Chest
			{
				OFFSET 8.98455 -0.406207 0.0
				CHANNELS 6 Xposition Yposition Zposition Zrotation Xrotation Yrotation 
				JOINT Neck
				{
					OFFSET 16.3773 0.0 0.0
					CHANNELS 6 Xposition Yposition Zposition Zrotation Xrotation Yrotation 
					JOINT Head
					{
						OFFSET 6.45672 0.0 0.0
						CHANNELS 6 Xposition Yposition Zposition Zrotation Xrotation Yrotation 
						End Site
						{
							OFFSET 0.0 0.0 0.0
						}
					}
				}
				JOINT Shoulder_L
				{
					OFFSET 12.9942 -0.242716 4.98039
					CHANNELS 6 Xposition Yposition Zposition Zrotation Xrotation Yrotation 
					JOINT UpperArm_L
					{
						OFFSET 5.34809 0.0 0.0
						CHANNELS 6 Xposition Yposition Zposition Zrotation Xrotation Yrotation 
						JOINT LowerArm_L
						{
							OFFSET 24.3286 1.87007e-05 0.0
							CHANNELS 6 Xposition Yposition Zposition Zrotation Xrotation Yrotation 
							JOINT Hand_L
							{
								OFFSET 22.2916 0.0 0.0
								CHANNELS 6 Xposition Yposition Zposition Zrotation Xrotation Yrotation 
								End Site
								{
									OFFSET 0.0 0.0 0.0
								}
							}
						}
					}
				}
				JOINT Shoulder_R
				{
					OFFSET 12.9945 -0.242716 -4.98039
					CHANNELS 6 Xposition Yposition Zposition Zrotation Xrotation Yrotation 
					JOINT UpperArm_R
					{
						OFFSET -5.34813 0.0 0.0
						CHANNELS 6 Xposition Yposition Zposition Zrotation Xrotation Yrotation 
						JOINT LowerArm_R
						{
							OFFSET -24.3289 0.000322201 0.0
							CHANNELS 6 Xposition Yposition Zposition Zrotation Xrotation Yrotation 
							JOINT Hand_R
							{
								OFFSET -22.2915 -0.000108084 0.0
								CHANNELS 6 Xposition Yposition Zposition Zrotation Xrotation Yrotation 
								End Site
								{
									OFFSET 0.0 0.0 0.0
								}
							}
						}
					}
				}
			}
		}
		JOINT UpperLeg_L
		{
			OFFSET -2.19248 -6.46944 0.0
			CHANNELS 6 Xposition Yposition Zposition Zrotation Xrotation Yrotation 
			JOINT LowerLeg_L
			{
				OFFSET 39.0811 0.0 -1.23785e-05
				CHANNELS 6 Xposition Yposition Zposition Zrotation Xrotation Yrotation 
				JOINT Foot_L
				{
					OFFSET 40.9854 0.0 -1.26872e-05
					CHANNELS 6 Xposition Yposition Zposition Zrotation Xrotation Yrotation 
					JOINT Toes_L
					{
						OFFSET 11.7543 0.0 0.0
						CHANNELS 6 Xposition Yposition Zposition Zrotation Xrotation Yrotation 
						End Site
						{
							OFFSET 0.0 0.0 0.0
						}
					}
				}
			}
		}
		JOINT UpperLeg_R
		{
			OFFSET -2.19251 6.46944 0.0
			CHANNELS 6 Xposition Yposition Zposition Zrotation Xrotation Yrotation 
			JOINT LowerLeg_R
			{
				OFFSET -39.0811 -0.00228153 -0.0401928
				CHANNELS 6 Xposition Yposition Zposition Zrotation Xrotation Yrotation 
				JOINT Foot_R
				{
					OFFSET -40.9854 0.0 0.0
					CHANNELS 6 Xposition Yposition Zposition Zrotation Xrotation Yrotation 
					JOINT Toes_R
					{
						OFFSET -11.7543 0.0 0.0
						CHANNELS 6 Xposition Yposition Zposition Zrotation Xrotation Yrotation 
						End Site
						{
							OFFSET 0.0 0.0 0.0
						}
					}
				}
			}
		}
	}
}
MOTION
Frames:	4
Frame Time:	0.0333333
0.000000 0.000000 0.000000 0.000000 0.000000 -0.000000 0.455505 93.017400 1.687310 89.105400 0.763365 -0.147519 15.735700 0.000005 -0.000001 110.122000 87.271600 -109.682000 8.984550 -0.406207 -0.000000 -2.649750 1.836600 0.923692 16.377300 -0.000001 -0.000001 -0.003827 1.093270 -3.432420 6.456720 -0.000001 -0.000000 1.363740 -1.756520 3.889590 12.994200 -0.242716 4.980390 -92.336200 6.973100 -71.425000 5.348090 -0.000007 -0.000001 -69.784900 14.217300 -6.806990 24.328600 0.000019 0.000005 7.048200 33.072500 -12.769300 22.291600 -0.000001 0.000005 -14.152400 5.255170 1.281900 12.994500 -0.242716 -4.980390 88.594700 5.261330 -75.022800 -5.348130 -0.000001 -0.000004 -73.021800 27.776500 -3.397440 -24.328900 0.000322 -0.000009 1.224680 4.557710 -15.069900 -22.291500 -0.000108 -0.000004 2.336510 5.289140 0.374934 -2.192480 -6.469440 -0.000000 -175.132000 -4.262670 0.180811 39.081100 -0.000007 -0.000012 0.034898 -0.144648 13.564400 40.985400 -0.000006 -0.000013 -0.440818 12.048500 -69.286900 11.754300 -0.000000 0.000003 -0.000429 0.174551 -9.496740 -2.192510 6.469440 -0.000001 175.099000 5.583280 -177.303000 -39.081100 -0.002282 -0.040193 0.003163 0.001027 9.752740 -40.985400 0.000008 0.000006 -9.570270 5.525350 -67.085800 -11.754300 -0.000006 -0.000006 -0.010243 0.273110 -5.477140
0.000000 0.000000 0.000000 0.000000 0.000000 -0.000000 0.341891 93.016800 1.732580 89.179300 0.755166 -0.279834 15.735700 0.000005 -0.000001 114.817000 87.211000 -114.495000 8.984550 -0.406207 -0.000000 -2.710480 2.310920 0.700444 16.377300 -0.000001 -0.000001 -0.158795 0.938776 -3.468570 6.456720 -0.000001 -0.000000 0.938610 -2.341310 4.915420 12.994200 -0.242716 4.980390 -92.240500 6.528810 -71.011900 5.348090 -0.000007 -0.000001 -66.982900 7.504110 -10.522400 24.328600 0.000019 0.000005 5.108930 37.385200 -8.378610 22.291600 -0.000001 0.000005 -19.584600 5.257750 1.244410 12.994500 -0.242716 -4.980390 88.681400 4.961280 -75.095500 -5.348130 -0.000001 -0.000004 -73.971300 26.448500 -2.429920 -24.328900 0.000322 -0.000009 0.904895 3.451100 -14.716800 -22.291500 -0.000108 -0.000004 2.148040 5.301710 0.024070 -2.192480 -6.469440 -0.000000 -175.058000 -4.786920 0.210638 39.081100 -0.000007 -0.000012 0.033796 -0.142620 13.331300 40.985400 -0.000006 -0.000013 -0.490798 12.592900 -69.260900 11.754300 -0.000000 0.000003 -0.000500 0.175649 -9.452110 -2.192510 6.469440 -0.000001 175.123000 5.643740 -177.552000 -39.081100 -0.002282 -0.040193 0.004355 -0.005748 10.027600 -40.985400 0.000008 0.000006 -9.412850 5.549800 -67.292600 -11.754300 -0.000006 -0.000006 -0.010523 0.275175 -5.392680
0.000000 0.000000 0.000000 0.000000 0.000000 -0.000000 0.214671 93.061300 1.782810 89.202100 0.696526 -0.831045 15.735700 0.000005 -0.000001 118.905000 87.326800 -118.514000 8.984550 -0.406207 -0.000000 -3.095670 2.546040 0.850810 16.377300 -0.000001 -0.000001 -0.578048 1.095470 -3.481580 6.456720 -0.000001 -0.000000 0.549975 -2.327780 5.442270 12.994200 -0.242716 4.980390 -92.097900 5.965980 -70.585700 5.348090 -0.000007 -0.000001 -63.607600 -1.144590 -14.118800 24.328600 0.000019 0.000005 2.770690 40.444100 -4.267150 22.291600 -0.000001 0.000005 -23.116900 5.195430 2.840710 12.994500 -0.242716 -4.980390 88.691300 4.937010 -75.133800 -5.348130 -0.000001 -0.000004 -73.799000 25.823000 -1.839730 -24.328900 0.000322 -0.000009 0.852353 3.403860 -14.084700 -22.291500 -0.000108 -0.000004 1.747160 5.309480 -0.195095 -2.192480 -6.469440 -0.000000 -174.951000 -5.552900 0.079766 39.081100 -0.000007 -0.000012 0.030989 -0.138539 12.608700 40.985400 -0.000006 -0.000013 -0.592638 13.264600 -69.056700 11.754300 -0.000000 0.000003 -0.000466 0.175130 -9.473190 -2.192510 6.469440 -0.000001 175.139000 6.027170 -177.813000 -39.081100 -0.002282 -0.040193 0.004393 -0.006317 9.464290 -40.985400 0.000008 0.000006 -9.744050 5.991300 -66.832800 -11.754300 -0.000006 -0.000006 -0.010404 0.274300 -5.428490
0.000000 0.000000 0.000000 0.000000 0.000000 -0.000000 0.127600 93.144300 1.793010 89.244000 0.689461 -1.628670 15.735700 0.000005 -0.000001 120.049000 87.585100 -119.397000 8.984550 -0.406207 -0.000000 -3.599980 2.352410 1.379690 16.377300 -0.000001 -0.000001 -1.252140 1.671460 -3.333510 6.456720 -0.000001 -0.000000 -0.130752 -1.512480 5.761350 12.994200 -0.242716 4.980390 -91.869300 5.213920 -70.244100 5.348090 -0.000007 -0.000001 -59.247600 -9.257380 -17.042100 24.328600 0.000019 0.000005 1.423660 42.320500 -2.114060 22.291600 -0.000001 0.000005 -22.893500 5.165720 3.561460 12.994500 -0.242716 -4.980390 88.691700 4.919610 -75.088300 -5.348130 -0.000001 -0.000004 -72.982400 24.158900 -1.514690 -24.328900 0.000322 -0.000009 1.041210 4.343560 -13.507400 -22.291500 -0.000108 -0.000004 1.654470 5.304500 -0.054164 -2.192480 -6.469440 -0.000000 -174.938000 -6.037550 -0.159961 39.081100 -0.000007 -0.000012 0.026781 -0.131549 11.507200 40.985400 -0.000006 -0.000013 -0.958958 13.762600 -68.579700 11.754300 -0.000000 0.000003 -0.000554 0.176482 -9.418260 -2.192510 6.469440 -0.000001 175.140000 6.369830 -178.225000 -39.081100 -0.002282 -0.040193 0.005893 -0.016822 8.625400 -40.985400 0.000008 0.000006 -10.382400 6.291590 -66.134800 -11.754300 -0.000006 -0.000006 -0.010435 0.274528 -5.419130
